{"accessors":[{"bufferView":0,"byteOffset":0,"componentType":5126,"count":175,"max":[0.02,0.024,0.019998137552108886],"min":[-0.01999979219279989,0.001,-0.019996550248290113],"type":"VEC3"},{"bufferView":0,"byteOffset":2100,"componentType":5126,"count":531,"max":[0.02,0.001,0.019989724324013757],"min":[-0.019974927912181823,0.0,-0.019989724324013757],"type":"VEC3"},{"bufferView":0,"byteOffset":8472,"componentType":5126,"count":531,"max":[0.02,0.025,0.019989724324013757],"min":[-0.019974927912181823,0.024,-0.019989724324013757],"type":"VEC3"},{"bufferView":0,"byteOffset":14844,"componentType":5126,"count":351,"max":[0.03722447145345668,0.023000000000056663,-0.000533981462633627],"min":[-0.012654746813289404,-5.5089505622e-8,-0.056567416268996626],"type":"VEC3"},{"bufferView":0,"byteOffset":19056,"componentType":5126,"count":15,"max":[0.020131337533804177,0.018091092963400116,0.000065964964649864],"min":[0.014616583671220049,-6.1770057073e-8,-0.013651208070431842],"type":"VEC3"},{"bufferView":0,"byteOffset":19236,"componentType":5126,"count":392,"max":[0.03886578514247762,0.023000000000036023,0.000065964964649864],"min":[-0.012654746813289404,-6.1770057073e-8,-0.056567416268996626],"type":"VEC3"},{"bufferView":0,"byteOffset":23940,"componentType":5126,"count":37,"max":[0.013654113317401241,0.023000000000056663,-0.016339261307814334],"min":[-0.012654746813289404,0.022999999999995985,-0.055632853687111586],"type":"VEC3"},{"bufferView":0,"byteOffset":24384,"componentType":5126,"count":358,"max":[0.005686804267715971,0.02300000000005666,-0.005156117816048209],"min":[-0.056820519844040976,-5.5089505622e-8,-0.04568337068859777],"type":"VEC3"},{"bufferView":0,"byteOffset":28680,"componentType":5126,"count":37,"max":[-0.011975420762348222,0.02300000000005666,-0.005156117816048209],"min":[-0.056820519844040976,0.022999999999995982,-0.022768999545327826],"type":"VEC3"},{"bufferView":0,"byteOffset":29124,"componentType":5126,"count":15,"max":[0.006283661826921161,0.018091092963400772,-0.018119652433998802],"min":[-0.00846629763657534,-6.1770057073e-8,-0.020028180079267214],"type":"VEC3"},{"bufferView":0,"byteOffset":29304,"componentType":5126,"count":385,"max":[0.006283661826921161,0.02300000000003602,-0.005156117816048209],"min":[-0.056820519844040976,-6.1770057073e-8,-0.04662554713463591],"type":"VEC3"},{"bufferView":0,"byteOffset":33924,"componentType":5126,"count":358,"max":[-0.01653167281695266,0.023000000000056663,0.052446197626794915],"min":[-0.05259206750305484,-5.5089505622e-8,-0.01175918232124211],"type":"VEC3"},{"bufferView":0,"byteOffset":38220,"componentType":5126,"count":15,"max":[-0.01624782095095664,0.018091092963399197,0.0024526470018849194],"min":[-0.02000737787942649,-6.1770057073e-8,-0.011886270088727101],"type":"VEC3"},{"bufferView":0,"byteOffset":38400,"componentType":5126,"count":393,"max":[-0.01624782095095664,0.023000000000036023,0.052446197626794915],"min":[-0.05259206750305484,-6.1770057073e-8,-0.012953984843119045],"type":"VEC3"},{"bufferView":0,"byteOffset":43116,"componentType":5126,"count":37,"max":[-0.018731255715655485,0.023000000000056663,0.052446197626794915],"min":[-0.032473518099108825,0.022999999999995985,0.006439342595000768],"type":"VEC3"},{"bufferView":0,"byteOffset":43560,"componentType":5126,"count":356,"max":[0.04293807617169248,0.023000000000056656,0.0551962570930169],"min":[-0.019389660518436425,-5.5089505622e-8,0.012214926129949956],"type":"VEC3"},{"bufferView":0,"byteOffset":47832,"componentType":5126,"count":15,"max":[-0.0038010858099425324,0.018091092963402573,0.019635471643570303],"min":[-0.016325367417735007,-6.1770057073e-8,0.011779536533856945],"type":"VEC3"},{"bufferView":0,"byteOffset":48012,"componentType":5126,"count":387,"max":[0.04293807617169248,0.023000000000036016,0.0551962570930169],"min":[-0.021152752908123733,-6.1770057073e-8,0.011779536533856945],"type":"VEC3"},{"bufferView":0,"byteOffset":52656,"componentType":5126,"count":37,"max":[0.04293807617169248,0.023000000000056656,0.04178509152350372],"min":[0.000272936708916626,0.02299999999999598,0.019980691040584225],"type":"VEC3"},{"bufferView":0,"byteOffset":53100,"componentType":5126,"count":357,"max":[0.05585387435438449,0.023000000000056656,0.028164335057648145],"min":[0.006702497366953034,-5.5089505622e-8,-0.029226876653736657],"type":"VEC3"},{"bufferView":0,"byteOffset":57384,"componentType":5126,"count":15,"max":[0.01749984314479478,0.018091092963398208,0.019166424038371817],"min":[0.0061581890079663035,-6.1770057073e-8,0.009682741858976683],"type":"VEC3"},{"bufferView":0,"byteOffset":57564,"componentType":5126,"count":390,"max":[0.05585387435438449,0.023000000000036016,0.030088819890492172],"min":[0.0061581890079663035,-6.1770057073e-8,-0.029226876653736657],"type":"VEC3"},{"bufferView":0,"byteOffset":62244,"componentType":5126,"count":37,"max":[0.0497933975569016,0.023000000000056656,0.005988520241014219],"min":[0.019103701114143973,0.02299999999999598,-0.029226876653736657],"type":"VEC3"},{"bufferView":0,"byteOffset":62688,"componentType":5126,"count":48,"max":[0.019,0.0,0.019],"min":[-0.019,0.0,-0.019],"type":"VEC3"},{"bufferView":0,"byteOffset":63264,"componentType":5126,"count":48,"max":[0.019,0.025,0.019],"min":[-0.019,0.025,-0.019],"type":"VEC3"},{"bufferView":0,"byteOffset":63840,"componentType":5126,"count":35,"max":[0.03886578514247763,3.76423588023e-7,0.00006596496464986413],"min":[0.02004631114176909,-6.1770057073e-8,-0.04429562064843527],"type":"VEC3"},{"bufferView":0,"byteOffset":64260,"componentType":5126,"count":35,"max":[0.006283661826921161,3.76423588023e-7,-0.01912565544815152],"min":[-0.03198424286904628,-6.1770057073e-8,-0.04662554713463591],"type":"VEC3"},{"bufferView":0,"byteOffset":64680,"componentType":5126,"count":35,"max":[-0.01624782095095664,3.76423588023e-7,0.01654202455031125],"min":[-0.052592067503054854,-6.1770057073e-8,-0.012953984843119045],"type":"VEC3"},{"bufferView":0,"byteOffset":65100,"componentType":5126,"count":35,"max":[-0.0005194423864704269,3.76423588023e-7,0.055129795211628675],"min":[-0.021152752908123736,-6.1770057073e-8,0.011779536533856948],"type":"VEC3"},{"bufferView":0,"byteOffset":65520,"componentType":5126,"count":35,"max":[0.05227103445301876,3.76423588023e-7,0.03008881989049218],"min":[0.006158189007966303,-6.1770057073e-8,0.017530062683296464],"type":"VEC3"},{"bufferView":1,"byteOffset":0,"componentType":5126,"count":175,"type":"VEC3"},{"bufferView":1,"byteOffset":2100,"componentType":5126,"count":531,"type":"VEC3"},{"bufferView":1,"byteOffset":8472,"componentType":5126,"count":531,"type":"VEC3"},{"bufferView":1,"byteOffset":14844,"componentType":5126,"count":351,"type":"VEC3"},{"bufferView":1,"byteOffset":19056,"componentType":5126,"count":15,"type":"VEC3"},{"bufferView":1,"byteOffset":19236,"componentType":5126,"count":392,"type":"VEC3"},{"bufferView":1,"byteOffset":23940,"componentType":5126,"count":37,"type":"VEC3"},{"bufferView":1,"byteOffset":24384,"componentType":5126,"count":358,"type":"VEC3"},{"bufferView":1,"byteOffset":28680,"componentType":5126,"count":37,"type":"VEC3"},{"bufferView":1,"byteOffset":29124,"componentType":5126,"count":15,"type":"VEC3"},{"bufferView":1,"byteOffset":29304,"componentType":5126,"count":385,"type":"VEC3"},{"bufferView":1,"byteOffset":33924,"componentType":5126,"count":358,"type":"VEC3"},{"bufferView":1,"byteOffset":38220,"componentType":5126,"count":15,"type":"VEC3"},{"bufferView":1,"byteOffset":38400,"componentType":5126,"count":393,"type":"VEC3"},{"bufferView":1,"byteOffset":43116,"componentType":5126,"count":37,"type":"VEC3"},{"bufferView":1,"byteOffset":43560,"componentType":5126,"count":356,"type":"VEC3"},{"bufferView":1,"byteOffset":47832,"componentType":5126,"count":15,"type":"VEC3"},{"bufferView":1,"byteOffset":48012,"componentType":5126,"count":387,"type":"VEC3"},{"bufferView":1,"byteOffset":52656,"componentType":5126,"count":37,"type":"VEC3"},{"bufferView":1,"byteOffset":53100,"componentType":5126,"count":357,"type":"VEC3"},{"bufferView":1,"byteOffset":57384,"componentType":5126,"count":15,"type":"VEC3"},{"bufferView":1,"byteOffset":57564,"componentType":5126,"count":390,"type":"VEC3"},{"bufferView":1,"byteOffset":62244,"componentType":5126,"count":37,"type":"VEC3"},{"bufferView":1,"byteOffset":62688,"componentType":5126,"count":48,"type":"VEC3"},{"bufferView":1,"byteOffset":63264,"componentType":5126,"count":48,"type":"VEC3"},{"bufferView":1,"byteOffset":63840,"componentType":5126,"count":35,"type":"VEC3"},{"bufferView":1,"byteOffset":64260,"componentType":5126,"count":35,"type":"VEC3"},{"bufferView":1,"byteOffset":64680,"componentType":5126,"count":35,"type":"VEC3"},{"bufferView":1,"byteOffset":65100,"componentType":5126,"count":35,"type":"VEC3"},{"bufferView":1,"byteOffset":65520,"componentType":5126,"count":35,"type":"VEC3"},{"bufferView":2,"byteOffset":0,"componentType":5123,"count":549,"type":"SCALAR"},{"bufferView":2,"byteOffset":1100,"componentType":5123,"count":2847,"type":"SCALAR"},{"bufferView":2,"byteOffset":6796,"componentType":5123,"count":2847,"type":"SCALAR"},{"bufferView":2,"byteOffset":12492,"componentType":5123,"count":1941,"type":"SCALAR"},{"bufferView":2,"byteOffset":16376,"componentType":5123,"count":39,"type":"SCALAR"},{"bufferView":2,"byteOffset":16456,"componentType":5123,"count":2175,"type":"SCALAR"},{"bufferView":2,"byteOffset":20808,"componentType":5123,"count":105,"type":"SCALAR"},{"bufferView":2,"byteOffset":21020,"componentType":5123,"count":1983,"type":"SCALAR"},{"bufferView":2,"byteOffset":24988,"componentType":5123,"count":105,"type":"SCALAR"},{"bufferView":2,"byteOffset":25200,"componentType":5123,"count":39,"type":"SCALAR"},{"bufferView":2,"byteOffset":25280,"componentType":5123,"count":2133,"type":"SCALAR"},{"bufferView":2,"byteOffset":29548,"componentType":5123,"count":1983,"type":"SCALAR"},{"bufferView":2,"byteOffset":33516,"componentType":5123,"count":39,"type":"SCALAR"},{"bufferView":2,"byteOffset":33596,"componentType":5123,"count":2181,"type":"SCALAR"},{"bufferView":2,"byteOffset":37960,"componentType":5123,"count":105,"type":"SCALAR"},{"bufferView":2,"byteOffset":38172,"componentType":5123,"count":1971,"type":"SCALAR"},{"bufferView":2,"byteOffset":42116,"componentType":5123,"count":39,"type":"SCALAR"},{"bufferView":2,"byteOffset":42196,"componentType":5123,"count":2145,"type":"SCALAR"},{"bufferView":2,"byteOffset":46488,"componentType":5123,"count":105,"type":"SCALAR"},{"bufferView":2,"byteOffset":46700,"componentType":5123,"count":1977,"type":"SCALAR"},{"bufferView":2,"byteOffset":50656,"componentType":5123,"count":39,"type":"SCALAR"},{"bufferView":2,"byteOffset":50736,"componentType":5123,"count":2163,"type":"SCALAR"},{"bufferView":2,"byteOffset":55064,"componentType":5123,"count":105,"type":"SCALAR"},{"bufferView":2,"byteOffset":55276,"componentType":5123,"count":138,"type":"SCALAR"},{"bufferView":2,"byteOffset":55552,"componentType":5123,"count":138,"type":"SCALAR"},{"bufferView":2,"byteOffset":55828,"componentType":5123,"count":99,"type":"SCALAR"},{"bufferView":2,"byteOffset":56028,"componentType":5123,"count":99,"type":"SCALAR"},{"bufferView":2,"byteOffset":56228,"componentType":5123,"count":99,"type":"SCALAR"},{"bufferView":2,"byteOffset":56428,"componentType":5123,"count":99,"type":"SCALAR"},{"bufferView":2,"byteOffset":56628,"componentType":5123,"count":99,"type":"SCALAR"}],"asset":{"generator":"Open CASCADE Technology 7.8 [dev.opencascade.org]","version":"2.0"},"bufferViews":[{"buffer":0,"byteLength":65940,"byteOffset":0,"byteStride":12,"target":34962},{"buffer":0,"byteLength":65940,"byteOffset":65940,"byteStride":12,"target":34962},{"buffer":0,"byteLength":56828,"byteOffset":131880,"target":34963}],"buffers":[{"byteLength":188708,"uri":"fanlatest-fan blade.bin"}],"materials":[{"name":"mat_0","pbrMetallicRoughness":{"baseColorFactor":[0.0,0.0,0.0,1.0]},"doubleSided":true}],"meshes":[{"name":"fan blade","primitives":[{"attributes":{"NORMAL":30,"POSITION":0},"indices":60,"material":0,"mode":4},{"attributes":{"NORMAL":31,"POSITION":1},"indices":61,"material":0,"mode":4},{"attributes":{"NORMAL":32,"POSITION":2},"indices":62,"material":0,"mode":4},{"attributes":{"NORMAL":33,"POSITION":3},"indices":63,"material":0,"mode":4},{"attributes":{"NORMAL":34,"POSITION":4},"indices":64,"material":0,"mode":4},{"attributes":{"NORMAL":35,"POSITION":5},"indices":65,"material":0,"mode":4},{"attributes":{"NORMAL":36,"POSITION":6},"indices":66,"material":0,"mode":4},{"attributes":{"NORMAL":37,"POSITION":7},"indices":67,"material":0,"mode":4},{"attributes":{"NORMAL":38,"POSITION":8},"indices":68,"material":0,"mode":4},{"attributes":{"NORMAL":39,"POSITION":9},"indices":69,"material":0,"mode":4},{"attributes":{"NORMAL":40,"POSITION":10},"indices":70,"material":0,"mode":4},{"attributes":{"NORMAL":41,"POSITION":11},"indices":71,"material":0,"mode":4},{"attributes":{"NORMAL":42,"POSITION":12},"indices":72,"material":0,"mode":4},{"attributes":{"NORMAL":43,"POSITION":13},"indices":73,"material":0,"mode":4},{"attributes":{"NORMAL":44,"POSITION":14},"indices":74,"material":0,"mode":4},{"attributes":{"NORMAL":45,"POSITION":15},"indices":75,"material":0,"mode":4},{"attributes":{"NORMAL":46,"POSITION":16},"indices":76,"material":0,"mode":4},{"attributes":{"NORMAL":47,"POSITION":17},"indices":77,"material":0,"mode":4},{"attributes":{"NORMAL":48,"POSITION":18},"indices":78,"material":0,"mode":4},{"attributes":{"NORMAL":49,"POSITION":19},"indices":79,"material":0,"mode":4},{"attributes":{"NORMAL":50,"POSITION":20},"indices":80,"material":0,"mode":4},{"attributes":{"NORMAL":51,"POSITION":21},"indices":81,"material":0,"mode":4},{"attributes":{"NORMAL":52,"POSITION":22},"indices":82,"material":0,"mode":4},{"attributes":{"NORMAL":53,"POSITION":23},"indices":83,"material":0,"mode":4},{"attributes":{"NORMAL":54,"POSITION":24},"indices":84,"material":0,"mode":4},{"attributes":{"NORMAL":55,"POSITION":25},"indices":85,"material":0,"mode":4},{"attributes":{"NORMAL":56,"POSITION":26},"indices":86,"material":0,"mode":4},{"attributes":{"NORMAL":57,"POSITION":27},"indices":87,"material":0,"mode":4},{"attributes":{"NORMAL":58,"POSITION":28},"indices":88,"material":0,"mode":4},{"attributes":{"NORMAL":59,"POSITION":29},"indices":89,"material":0,"mode":4}]}],"nodes":[{"mesh":0,"name":"fan blade"}],"scene":0,"scenes":[{"nodes":[0]}]}